<?xml version="1.0" standalone="no"?>
<!DOCTYPE svg PUBLIC "-//W3C//DTD SVG 20010904//EN"
 "http://www.w3.org/TR/2001/REC-SVG-20010904/DTD/svg10.dtd">
<svg version="1.0" xmlns="http://www.w3.org/2000/svg"
 width="498.000000pt" height="512.000000pt" viewBox="0 0 498.000000 512.000000"
 preserveAspectRatio="xMidYMid meet">

<g transform="translate(0.000000,512.000000) scale(0.100000,-0.100000)"
fill="#000000" stroke="none">
<path d="M1095 5110 l-50 -7 50 -3 50 -3 -65 -8 c-36 -4 -78 -5 -94 -2 -21 4
-27 2 -21 -8 6 -9 2 -11 -13 -7 -12 4 -25 2 -28 -3 -3 -6 -14 -7 -24 -4 -10 3
-21 1 -24 -4 -4 -5 -37 -19 -74 -32 -283 -93 -558 -341 -686 -620 -49 -107
-82 -221 -100 -341 -14 -89 -16 -232 -16 -905 l0 -799 51 -57 c34 -38 63 -60
89 -68 64 -19 120 -88 120 -149 0 -27 -12 -25 -38 5 -14 16 -32 25 -52 25 -34
0 -55 26 -65 80 -4 21 -25 56 -55 89 l-47 54 -2 -101 c0 -55 3 -103 8 -106 5
-4 28 -30 51 -59 l42 -52 -52 55 -51 55 4 -540 c3 -505 5 -545 24 -625 64
-259 180 -461 364 -635 196 -183 437 -294 707 -325 107 -12 704 -9 1712 8 584
10 752 18 856 43 27 6 139 14 249 19 219 8 278 20 420 85 300 136 530 440 621
820 15 61 18 153 21 702 l4 632 -23 5 c-69 14 -232 27 -401 33 -152 4 -216 2
-307 -11 -128 -19 -262 -50 -288 -66 -21 -14 18 -9 172 20 163 30 178 23 30
-14 -154 -39 -225 -62 -277 -88 -33 -16 -37 -21 -26 -35 14 -16 77 -16 764 2
l190 5 -45 -19 c-25 -10 -77 -22 -115 -26 -262 -25 -466 -66 -780 -157 -77
-22 -158 -42 -180 -44 -22 -3 -74 -12 -117 -21 -62 -13 -85 -14 -121 -4 -25 6
-52 11 -59 10 -27 -1 42 -21 172 -50 204 -46 190 -50 -80 -19 -96 11 -206 26
-243 35 -97 20 -206 76 -275 140 -33 30 -67 55 -76 55 -10 0 -26 5 -37 10 -17
10 -18 8 -9 -16 16 -40 47 -82 109 -148 50 -52 52 -57 22 -40 -47 27 -124 115
-162 188 -18 33 -36 63 -40 66 -4 3 -12 18 -18 33 -6 15 -17 27 -25 27 -8 0
-27 5 -41 12 -30 14 -16 28 28 28 26 0 27 2 27 50 0 28 5 50 10 50 6 0 10 7
10 16 0 14 2 15 17 3 14 -12 16 -12 11 1 -114 296 -231 516 -333 625 l-37 40
21 -35 c131 -214 159 -426 91 -678 -30 -109 -65 -169 -144 -248 -128 -127
-261 -175 -636 -229 -96 -14 -202 -30 -235 -36 -33 -5 -73 -12 -90 -15 l-30
-5 25 15 c22 12 100 31 478 112 186 40 322 93 392 153 l25 22 -24 17 c-101 71
-556 211 -836 257 -60 10 -119 25 -130 33 -18 12 -14 13 35 7 88 -10 255 -43
380 -75 152 -38 294 -88 458 -162 l135 -60 23 28 c31 39 39 65 23 75 -31 20
-202 68 -329 93 -376 72 -562 106 -630 115 -174 24 -550 49 -550 38 0 -2 14
-31 30 -64 l30 -60 98 -7 c294 -21 562 -83 800 -184 103 -43 102 -54 -1 -12
-41 16 -110 38 -153 49 -270 65 -572 126 -681 137 -69 6 -73 5 -73 -13 0 -11
-9 -32 -21 -47 l-21 -26 -20 25 c-11 14 -24 23 -29 20 -17 -11 -9 60 12 99 16
31 19 50 15 95 -3 42 -2 50 5 32 9 -24 11 -24 107 -18 53 4 125 7 160 7 61 0
62 1 63 28 0 15 6 43 13 62 12 31 11 40 -6 73 -10 21 -26 37 -36 37 -9 0 -35
9 -57 20 l-40 19 71 -6 c64 -5 77 -3 130 23 58 28 59 28 27 32 -18 2 -33 5
-33 6 0 2 9 29 20 61 11 32 20 61 20 66 0 9 -76 -8 -117 -28 -18 -8 -44 -29
-58 -45 l-25 -30 0 34 c0 19 -5 39 -12 46 -14 14 -8 16 97 30 44 6 106 22 138
36 64 29 77 32 59 14 -7 -7 -12 -21 -12 -32 0 -12 -10 -37 -21 -56 -12 -19
-15 -29 -8 -22 21 19 31 14 18 -10 -15 -29 11 -49 57 -43 l32 4 -19 -54 c-23
-65 -35 -135 -23 -135 20 0 111 28 139 42 44 23 62 48 69 97 4 24 14 53 22 65
16 21 16 21 10 -4 -21 -77 -19 -96 12 -131 35 -40 86 -45 129 -13 40 29 66 85
54 115 l-9 24 -10 -26 c-22 -55 -92 -77 -125 -41 -20 22 -21 68 -3 101 l13 23
6 -22 c7 -28 41 -23 45 8 5 31 15 28 68 -23 45 -43 47 -45 42 -94 -3 -35 -13
-59 -32 -82 -25 -29 -27 -37 -21 -83 4 -28 9 -53 10 -54 7 -7 93 58 120 89 19
24 25 40 21 58 -18 87 -18 92 -1 111 10 11 24 20 31 20 7 0 18 8 23 18 10 16
10 16 11 0 0 -20 19 -34 29 -22 3 5 14 10 24 11 25 2 16 -36 -24 -102 -35 -57
-34 -86 7 -149 27 -41 44 -37 44 11 0 25 36 63 60 63 39 0 78 128 48 158 -17
17 20 28 45 13 16 -10 21 -10 28 0 5 9 10 4 15 -17 12 -52 64 -87 114 -77 31
6 32 7 26 47 -18 112 -116 240 -213 276 -94 35 -212 26 -350 -28 -29 -11 -53
-19 -53 -17 0 7 130 86 175 106 55 24 185 32 260 15 l40 -9 -20 23 c-65 72
-202 158 -310 194 -125 40 -328 18 -454 -49 l-66 -36 40 35 c22 19 37 37 35
39 -3 2 -39 1 -81 -4 -78 -7 -126 -25 -168 -63 l-24 -21 14 22 c7 12 35 34 61
48 40 22 72 29 196 41 81 7 174 18 207 24 146 24 301 3 422 -59 195 -98 371
-263 520 -487 31 -46 58 -82 60 -80 5 5 -51 117 -83 165 -57 87 -55 201 7 326
37 77 100 142 226 237 94 70 186 163 229 231 31 48 37 47 18 -5 -18 -53 -35
-79 -88 -136 l-41 -44 38 16 c20 9 53 23 73 32 20 8 71 39 114 69 73 49 151
86 217 101 15 3 1 -8 -32 -25 -33 -17 -91 -58 -130 -92 -38 -34 -128 -100
-200 -147 -258 -169 -351 -302 -343 -489 l3 -68 18 33 c43 78 143 165 282 245
108 62 215 106 272 113 l48 5 -70 -38 c-81 -44 -155 -94 -174 -117 -18 -21 -8
-20 42 6 51 26 170 35 248 19 68 -15 198 -63 182 -68 -7 -3 -46 5 -86 16 -274
75 -512 -8 -611 -212 -38 -77 -55 -160 -37 -171 12 -8 79 28 154 82 47 34 65
32 26 -4 -28 -25 -55 -64 -63 -91 -7 -21 -4 -22 39 -19 25 1 51 8 57 14 7 7
24 12 39 12 42 0 42 25 -2 68 -34 35 -39 45 -39 86 0 55 19 96 54 120 25 16
26 16 26 -4 0 -25 29 -38 40 -19 5 7 4 21 -1 31 -8 15 -6 18 18 18 38 0 89
-33 108 -69 17 -34 20 -87 6 -123 -15 -39 14 -67 69 -70 100 -4 120 0 120 25
0 27 -15 47 -53 71 -37 23 -67 73 -67 112 l0 32 43 -10 c23 -5 57 -8 76 -6 30
4 35 1 47 -29 8 -18 14 -62 14 -97 0 -63 1 -66 28 -72 15 -4 56 -21 92 -39 36
-18 83 -35 104 -39 l39 -7 -7 41 c-4 23 -16 60 -27 81 l-20 40 39 -20 c21 -11
56 -22 77 -26 22 -4 53 -16 69 -27 l29 -21 -8 49 c-7 49 -49 149 -82 193 -18
24 -18 24 32 -3 30 -17 51 -24 53 -17 2 7 9 8 22 1 12 -6 29 -6 50 1 l32 11
-34 36 c-34 37 -26 33 51 -22 55 -39 76 -30 67 27 -10 61 -48 119 -100 152
-25 16 -60 46 -77 68 -36 45 -35 45 82 -25 41 -24 89 -42 127 -49 l61 -11 -24
-21 c-27 -25 -43 -67 -25 -67 6 0 61 23 121 51 61 28 113 49 115 46 3 -3 -5
-11 -18 -17 -91 -48 -228 -137 -228 -150 0 -8 4 -31 9 -50 9 -41 5 -60 -15
-60 -18 0 -18 -11 1 -36 8 -10 15 -27 15 -36 0 -10 9 -22 20 -28 21 -11 34
-10 194 21 54 10 102 19 108 19 28 0 -16 -23 -132 -70 -71 -29 -130 -56 -130
-61 0 -13 14 -11 71 11 28 12 53 19 55 17 2 -2 -25 -22 -61 -44 l-64 -41 12
-33 c15 -41 80 -89 121 -89 27 -1 29 -2 14 -13 -15 -12 -13 -16 17 -40 38 -30
172 -67 335 -91 58 -9 124 -20 148 -25 l43 -8 -4 861 c-3 835 -4 864 -24 946
-64 259 -183 466 -361 631 -141 129 -338 243 -502 289 -166 46 -231 50 -800
48 l-535 -3 505 -5 c332 -3 426 -6 275 -8 -126 -2 -239 -5 -250 -7 -11 -2 -92
-5 -180 -6 -243 -4 -287 -8 -292 -28 -2 -9 -15 -18 -30 -19 -34 -3 -40 -9 -23
-25 10 -10 11 -9 5 3 -5 8 -4 11 0 7 5 -4 10 -14 11 -22 2 -11 -2 -12 -16 -5
-25 14 -30 13 -24 -5 3 -8 15 -17 26 -21 17 -5 18 -12 13 -45 -6 -34 -3 -41
22 -63 15 -14 35 -26 45 -26 69 -1 446 -111 548 -159 51 -24 48 -23 -110 29
-180 61 -352 93 -500 94 -114 1 -128 -1 -162 -22 -21 -13 -38 -27 -38 -31 0
-11 -71 -44 -105 -48 -16 -2 -36 -10 -44 -18 -19 -19 -8 -31 89 -99 80 -57
141 -121 159 -169 17 -43 14 -47 -24 -31 -32 13 -35 13 -35 -3 -1 -17 -1 -17
-11 -1 -5 9 -15 15 -23 12 -18 -7 -67 13 -83 34 -18 24 9 -44 38 -92 27 -46
18 -48 -11 -2 -32 53 -189 121 -190 84 -1 -9 -4 -8 -9 2 -11 18 1 91 30 179
l22 64 -24 18 c-13 10 -28 19 -33 19 -5 0 -27 15 -50 33 -61 50 -104 61 -215
54 -114 -8 -237 -39 -398 -103 -177 -70 -241 -104 -441 -236 -348 -230 -657
-658 -759 -1051 -21 -84 -23 -104 -14 -142 18 -70 14 -110 -14 -143 -35 -41
-44 -97 -46 -267 -1 -82 -3 -141 -6 -130 -7 30 -21 41 -35 27 -7 -7 -20 -12
-30 -12 -10 0 -18 -7 -18 -17 0 -12 -3 -14 -11 -6 -8 8 -10 80 -7 240 5 217 6
234 37 348 58 218 110 349 207 521 46 82 80 134 190 288 63 88 273 271 446
387 48 33 92 68 98 79 12 23 60 50 89 50 12 0 62 18 111 41 103 46 244 96 380
134 97 27 154 50 178 73 7 6 17 12 21 12 22 0 70 58 74 90 3 19 6 37 6 40 1 3
6 -2 12 -10 8 -11 9 -9 3 10 -4 14 -7 34 -8 45 -1 29 -36 32 -526 42 l-435 8
520 5 520 5 -530 1 c-291 1 -552 -2 -580 -6z m2768 -17 c-13 -2 -33 -2 -45 0
-13 2 -3 4 22 4 25 0 35 -2 23 -4z m-1142 -385 c32 -53 50 -130 32 -141 -5 -3
-21 0 -36 8 -17 9 -27 10 -27 3 0 -11 -29 -37 -42 -38 -8 0 -28 58 -28 83 0
24 50 137 61 137 4 0 22 -24 40 -52z m-542 -64 c56 -61 75 -93 85 -139 10 -47
-4 -60 -53 -47 -33 8 -44 7 -56 -4 -7 -8 -20 -14 -27 -14 -8 0 -19 -5 -25 -11
-18 -18 -36 56 -30 125 5 61 32 146 47 146 4 0 31 -25 59 -56z m1961 -28 c-13
-13 -35 7 -25 24 5 8 11 8 21 -1 10 -8 12 -15 4 -23z m-1026 -13 c-7 -40 -18
-53 -45 -53 -8 0 -28 -13 -44 -30 -34 -36 -45 -38 -45 -7 1 36 25 70 72 99 61
37 70 36 62 -9z m-1149 -17 c32 -14 73 -61 62 -72 -3 -3 -11 4 -17 16 -6 12
-27 28 -45 36 -42 17 -105 19 -105 2 0 -9 -3 -9 -12 0 -30 30 56 43 117 18z
m897 -14 c9 -15 30 -47 47 -71 42 -60 41 -74 -6 -51 l-38 18 -5 -31 -6 -32 -8
31 c-6 26 -11 31 -29 26 -12 -2 -28 -9 -35 -15 -7 -5 -15 -8 -18 -5 -5 6 68
157 76 158 3 0 13 -12 22 -28z m536 -104 c-5 -90 -32 -163 -56 -153 -7 3 -37
5 -65 6 -37 0 -46 3 -32 9 18 7 18 9 -10 20 -22 8 -35 9 -47 1 -26 -16 -22 -1
10 33 l27 29 -38 -28 c-37 -27 -40 -28 -65 -13 -23 14 -28 14 -49 1 -35 -23
-39 -9 -10 40 47 80 160 130 311 136 l29 1 -5 -82z m-1490 -53 c55 -17 125
-65 151 -104 15 -23 15 -24 -6 -13 -31 17 -53 15 -53 -5 0 -14 -2 -14 -21 3
-16 14 -22 15 -28 5 -6 -9 -11 -10 -15 -2 -4 6 -24 11 -44 11 l-37 0 30 -26
c35 -30 21 -23 -52 23 -29 19 -88 47 -130 64 -104 42 -106 43 -48 50 98 12
201 9 253 -6z m380 -36 c35 -42 42 -56 41 -92 0 -34 -2 -38 -9 -20 -5 12 -15
25 -23 30 -7 4 -19 17 -25 28 -11 20 -11 20 -12 -2 0 -16 -5 -20 -19 -16 -11
3 -22 12 -26 21 -9 23 6 102 19 101 6 0 30 -23 54 -50z m-702 -82 c9 -27 -2
-32 -30 -14 -23 16 -24 15 -30 -9 -4 -14 -11 -22 -16 -19 -14 8 -13 82 1 107
11 21 12 21 40 -13 16 -19 31 -42 35 -52z m1319 43 c32 -20 65 -72 65 -104 0
-20 -11 -20 -36 -1 -25 19 -44 19 -44 -1 0 -14 -2 -15 -17 -3 -19 16 -52 86
-53 112 0 24 44 22 85 -3z m718 4 c9 -9 -20 -75 -45 -101 -16 -17 -25 -20 -40
-12 -10 5 -17 13 -14 17 2 4 -20 7 -50 7 -30 -1 -54 2 -54 6 0 18 63 68 97 77
45 12 97 15 106 6z m-2918 -25 c0 -7 -8 -15 -17 -17 -18 -3 -25 18 -11 32 10
10 28 1 28 -15z m2425 -28 c0 -20 -22 -67 -42 -88 -16 -17 -23 -19 -33 -10 -7
7 -11 15 -8 20 6 11 -5 9 -27 -5 -30 -19 -35 -3 -10 36 13 22 33 39 53 45 43
12 67 13 67 2z m-1736 -42 c26 -14 56 -40 56 -49 0 -4 -20 -6 -43 -5 -43 2
-147 51 -147 69 0 11 105 -1 134 -15z m809 -3 c18 -7 43 -25 56 -40 26 -27 22
-33 -10 -16 -20 11 -125 -3 -162 -22 -10 -5 -31 -6 -48 -3 l-29 7 47 38 c42
35 61 44 101 49 7 0 27 -5 45 -13z m287 7 c-1 -5 -6 -17 -13 -28 -15 -25 -79
-29 -75 -5 4 19 89 51 88 33z m1980 -20 c0 -16 -5 -45 -11 -66 -9 -35 -17 -42
-76 -69 -36 -16 -66 -28 -68 -26 -1 2 -5 33 -8 69 -4 46 -2 72 6 84 14 19 62
32 120 34 34 1 37 -1 37 -26z m-614 -8 c84 -9 92 -16 65 -54 -22 -31 -24 -31
-84 -25 -57 5 -67 3 -132 -30 l-70 -35 35 30 35 29 -30 -6 c-16 -4 -40 -15
-51 -26 -18 -16 -22 -17 -27 -4 -4 11 -14 12 -41 6 -32 -7 -35 -6 -26 10 12
23 64 66 103 87 32 16 120 33 147 27 8 -1 42 -5 76 -9z m-1431 -99 c88 -52
161 -154 211 -294 23 -68 25 -68 44 -7 18 59 76 165 110 203 29 31 138 107
145 100 2 -2 -24 -26 -58 -54 -43 -34 -72 -69 -94 -111 -29 -54 -93 -266 -129
-428 -15 -70 -18 -202 -4 -260 12 -54 3 -58 -17 -7 -17 46 -24 50 -46 27 -13
-12 -15 -10 -21 17 -11 53 -6 191 9 258 19 88 19 223 -1 291 -40 135 -123 240
-221 281 -29 12 -53 25 -53 29 0 11 76 -17 125 -45z m-687 15 c21 -11 44 -26
51 -35 11 -12 5 -15 -41 -15 -29 0 -68 -4 -87 -7 -49 -10 -166 13 -186 37 -20
22 -18 23 60 38 68 13 157 5 203 -18z m1697 19 c3 -5 2 -10 -4 -10 -5 0 -17
-13 -27 -29 -15 -25 -20 -27 -50 -21 -18 4 -36 5 -39 2 -9 -9 -115 -11 -115
-3 0 12 43 49 70 60 33 13 157 14 165 1z m-667 -11 c22 -8 36 -7 52 1 13 7 20
8 17 3 -3 -5 -32 -20 -64 -35 -51 -23 -124 -56 -145 -66 -18 -9 -6 29 19 58
40 48 69 57 121 39z m-419 -73 c12 -31 12 -39 -3 -61 -36 -55 -116 -57 -160
-4 -30 35 -46 31 -46 -14 -1 -28 -2 -29 -11 -14 -14 24 -4 79 20 109 15 18 29
23 70 23 27 0 56 6 62 12 19 19 51 -6 68 -51z m721 39 c15 -18 13 -21 -19 -33
-23 -8 -23 -9 11 -29 25 -15 41 -35 53 -67 23 -60 10 -111 -40 -155 -29 -25
-44 -31 -83 -31 -26 1 -57 6 -70 13 -20 11 -15 13 40 9 73 -4 123 20 134 63 9
35 1 39 -35 21 -52 -27 -84 -20 -150 36 -32 28 -41 64 -19 86 17 17 25 15 31
-8 6 -21 14 -24 35 -12 17 11 5 42 -17 42 -27 0 9 20 39 21 l25 0 -22 11 c-13
6 -23 15 -23 20 0 25 91 36 110 13z m-1695 -39 c19 -8 35 -16 35 -18 0 -2 -18
-2 -40 0 -26 3 -44 -1 -55 -11 -21 -21 -19 -32 8 -50 21 -15 20 -15 -18 -9
-54 9 -204 9 -238 -1 -46 -13 -23 10 44 43 110 56 202 72 264 46z m1025 -64
c0 -45 -24 -89 -63 -112 -33 -21 -102 -26 -126 -11 -8 6 3 7 30 4 95 -9 160
73 136 172 l-7 30 15 -25 c8 -14 14 -40 15 -58z m515 58 c3 -5 2 -10 -4 -10
-5 0 -13 5 -16 10 -3 6 -2 10 4 10 5 0 13 -4 16 -10z m-951 -81 c53 -47 76
-85 76 -126 0 -31 -19 -71 -20 -43 0 8 -12 23 -25 33 -24 17 -25 17 -25 0 -1
-17 -1 -17 -11 0 -5 9 -21 17 -34 17 -17 0 -25 -6 -25 -17 0 -15 -2 -16 -10
-3 -20 30 -3 180 20 180 4 0 28 -19 54 -41z m1978 -8 c93 -18 95 -20 47 -74
-22 -26 -45 -47 -51 -47 -5 0 -26 7 -45 16 -24 12 -31 20 -24 27 16 16 13 30
-4 23 -11 -4 -19 3 -25 19 -6 16 -17 25 -32 25 -21 0 -21 1 6 29 27 28 29 28
46 11 9 -9 46 -23 82 -29z m-386 -36 c27 -13 72 -48 99 -76 l50 -51 -85 5
c-47 3 -94 8 -105 12 -19 6 -19 6 -2 -8 31 -26 18 -26 -43 -1 -33 13 -78 24
-101 24 -36 0 -41 2 -36 19 5 19 3 19 -34 4 -78 -31 -53 17 36 68 67 39 149
40 221 4z m-2102 -60 c-22 -7 -59 -22 -81 -34 -49 -24 -68 -46 -28 -31 15 6
38 10 53 9 31 -1 22 -5 -30 -14 -21 -3 -63 -25 -96 -50 -88 -67 -95 -54 -12
23 87 81 141 111 195 111 l40 -1 -41 -13z m2571 -36 c5 -15 16 -19 49 -19 47
0 116 -21 155 -47 24 -15 24 -17 6 -24 -11 -4 -33 -8 -49 -8 -24 -1 -27 1 -16
14 10 13 7 17 -23 30 -46 19 -110 19 -165 0 -66 -23 -94 -44 -87 -66 5 -15 1
-19 -17 -21 -47 -3 -83 4 -120 23 -20 10 -45 16 -55 13 -10 -3 -5 3 12 15 16
11 50 23 75 27 75 10 109 24 156 65 48 42 66 41 79 -2z m-215 14 c0 -5 -10
-21 -23 -36 -16 -20 -30 -28 -46 -25 l-24 3 27 33 c25 28 66 44 66 25z m-2025
-17 c39 -17 85 -61 85 -83 0 -11 -7 -9 -26 6 -26 20 -60 29 -51 14 6 -9 -219
-10 -228 -1 -8 7 57 47 104 64 47 17 74 17 116 0z m-677 -56 c50 -23 57 -35 7
-14 -42 17 -86 18 -82 2 1 -7 -8 -14 -20 -16 -13 -2 -23 -7 -23 -11 0 -4 10
-13 23 -20 l22 -11 -23 6 c-13 3 -62 9 -110 13 l-87 7 45 23 c61 33 86 39 150
40 34 0 71 -7 98 -19z m2545 -57 c-13 -2 -33 -2 -45 0 -13 2 -3 4 22 4 25 0
35 -2 23 -4z m-1305 -218 c18 -34 64 -101 103 -150 82 -103 123 -170 114 -185
-9 -15 -26 -12 -41 8 -12 16 -13 16 -14 -4 0 -12 7 -38 15 -58 22 -52 12 -44
-24 18 -52 92 -142 179 -266 256 -122 76 -151 104 -210 199 -21 35 -52 71 -69
82 -43 26 -24 24 23 -3 20 -11 55 -46 77 -76 21 -30 57 -67 79 -82 32 -22 189
-100 201 -100 2 0 -15 37 -36 83 -38 79 -39 84 -33 157 l6 74 22 -79 c11 -44
35 -107 53 -140z m1229 209 c-3 -3 -12 -4 -19 -1 -8 3 -5 6 6 6 11 1 17 -2 13
-5z m-1447 -14 c0 -5 -2 -10 -4 -10 -2 0 -12 -3 -20 -6 -12 -5 -15 -2 -10 10
7 17 34 22 34 6z m50 3 c-1 -18 -37 -52 -62 -58 -38 -10 -34 5 10 37 38 28 52
34 52 21z m1350 -3 c-8 -5 -22 -10 -30 -10 -13 0 -13 1 0 10 8 5 22 10 30 10
13 0 13 -1 0 -10z m-1708 -42 c-1 -9 7 -22 19 -29 21 -11 31 -5 42 25 2 5 13
4 25 -3 18 -9 20 -17 15 -44 -14 -75 -56 -103 -140 -93 -49 6 -54 4 -62 -16
-7 -21 -9 -20 -20 14 -14 43 -2 105 27 131 40 36 99 45 94 15z m1898 -6 c35
-27 50 -60 50 -115 0 -42 -5 -54 -33 -82 -57 -57 -130 -59 -190 -5 l-32 29 49
-24 c57 -29 83 -31 131 -11 36 15 55 42 55 75 0 24 -6 25 -40 6 -65 -37 -150
4 -150 72 0 29 3 33 14 24 7 -6 21 -9 30 -5 17 7 22 33 6 35 -5 1 -14 2 -19 3
-5 0 -13 5 -18 10 -4 5 -4 7 2 4 6 -3 19 -2 30 3 29 12 85 3 115 -19z m585
-12 c36 30 25 -4 -19 -60 l-47 -60 35 -42 c37 -43 39 -70 3 -43 -12 8 -41 25
-65 37 -32 17 -39 24 -26 28 14 5 13 10 -10 37 -31 37 -75 53 -166 64 -61 7
-59 8 20 4 47 -2 100 -9 117 -15 30 -11 36 -9 75 23 32 26 46 33 55 25 9 -7
17 -7 28 2z m323 -42 c-4 -12 -39 -40 -148 -117 -30 -21 -83 -65 -118 -97
l-63 -59 66 -54 c36 -29 65 -54 63 -56 -2 -2 -21 -5 -42 -8 -42 -6 -58 -1
-121 38 -32 20 -36 25 -18 25 48 0 36 37 -21 67 -46 24 -282 36 -312 16 -27
-17 -70 -13 -66 6 2 9 -5 12 -22 9 -22 -4 -23 -3 -14 18 15 31 58 47 107 39
23 -4 41 -10 41 -14 0 -10 85 -31 128 -31 20 1 72 9 115 19 63 15 77 16 73 5
-3 -8 -9 -21 -12 -29 -19 -47 118 38 256 159 79 70 117 92 108 64z m-3483 -53
c-36 -17 -62 -19 -70 -6 -5 8 27 15 85 19 8 0 2 -6 -15 -13z m-298 -16 c36
-13 71 -46 90 -84 15 -28 13 -27 -30 13 -26 23 -53 42 -62 42 -18 0 -19 -12
-3 -28 15 -15 15 -15 -52 3 -30 8 -75 15 -99 15 -52 0 -46 13 15 35 47 17 103
19 141 4z m710 -19 c25 -11 51 -33 63 -52 29 -48 25 -54 -15 -24 -39 30 -69
26 -33 -5 21 -17 21 -18 3 -12 -11 3 -24 9 -30 13 -42 30 -144 36 -129 7 3 -7
-10 6 -29 28 -19 22 -34 42 -32 44 2 2 19 7 37 11 58 14 122 10 165 -10z m383
-40 c-15 -29 -63 -50 -112 -50 -76 0 -76 17 1 22 57 3 76 8 93 26 28 27 32 28
18 2z m-715 -9 c-11 -5 -29 -20 -40 -35 -11 -14 -25 -26 -32 -26 -7 0 -13 -9
-13 -20 0 -19 -1 -19 -35 -3 -34 16 -35 18 -18 34 30 29 96 59 128 58 26 0 27
-1 10 -8z m2201 -31 c23 -11 50 -30 60 -42 19 -21 19 -21 -6 -15 -14 4 -72 7
-129 7 l-104 0 19 21 c21 25 69 48 98 49 11 0 39 -9 62 -20z m-2213 -27 c-7
-2 -19 -2 -25 0 -7 3 -2 5 12 5 14 0 19 -2 13 -5z m3378 -29 c-39 -33 -95
-103 -88 -111 3 -3 27 2 54 11 26 9 43 12 37 6 -5 -5 -36 -19 -68 -30 l-59
-20 7 56 c3 31 11 65 16 75 11 20 57 37 103 38 l29 1 -31 -26z m-1371 -9 c0
-2 -13 -11 -30 -20 -38 -19 -40 -11 -2 9 31 17 32 18 32 11z m-2173 -51 c-3
-3 -29 -11 -59 -18 -50 -12 -52 -14 -28 -24 l25 -11 -27 0 c-29 -1 -127 -76
-114 -88 1 -1 31 6 67 17 70 22 109 25 109 10 0 -5 8 -7 18 -3 15 6 14 3 -3
-16 -21 -24 -62 -50 -52 -33 4 5 -14 7 -45 4 -38 -4 -49 -2 -44 7 11 18 -61
-14 -103 -46 -46 -34 -113 -93 -105 -93 3 0 51 -9 107 -21 62 -13 122 -19 156
-17 45 4 51 3 37 -8 -37 -26 -89 -26 -202 2 -60 15 -113 30 -118 35 -11 10 57
142 100 196 41 50 92 83 154 99 46 13 138 19 127 8z m2665 -4 c21 -6 40 -15
42 -19 3 -5 -13 -2 -37 6 -48 17 -143 12 -241 -13 -32 -8 -60 -13 -63 -10 -5
5 52 22 121 36 59 11 135 11 178 0z m-491 -7 c-107 -42 -133 -51 -125 -43 14
14 104 49 124 49 12 -1 12 -2 1 -6z m-2498 -13 c-23 -5 -56 -16 -73 -25 -44
-23 -50 -11 -9 14 22 14 50 21 79 20 l45 -1 -42 -8z m3172 -24 c79 -52 83
-174 8 -230 -60 -44 -165 -26 -203 36 -24 39 -27 115 -6 144 13 17 14 15 9
-23 -7 -50 20 -91 70 -110 69 -25 78 -7 17 32 -50 31 -66 66 -48 105 10 23 15
26 30 17 27 -17 47 6 29 35 -13 20 -12 21 28 15 23 -3 53 -12 66 -21z m-2044
-41 c38 -35 -19 -135 -77 -135 -29 0 -84 50 -84 76 0 21 38 64 57 64 7 0 23
-6 34 -12 18 -11 23 -10 33 5 13 21 15 21 37 2z m-577 -57 c25 -23 9 -44 -43
-58 -20 -5 -45 -16 -56 -24 -18 -13 -18 -16 -5 -30 15 -15 43 -20 91 -18 32 2
69 38 85 84 l12 33 1 -38 c1 -57 -22 -93 -72 -112 -40 -15 -47 -15 -80 -1 -77
32 -102 142 -43 193 25 21 27 21 58 5 18 -9 42 -24 52 -34z m373 -65 c-3 -10
-5 -4 -5 12 0 17 2 24 5 18 2 -7 2 -21 0 -30z m248 -7 c-9 -44 -61 -92 -110
-102 -41 -7 -100 19 -124 57 l-15 24 25 -22 c56 -50 174 -19 209 54 19 39 23
36 15 -11z m2513 -113 c-4 -22 -22 -20 -26 1 -2 10 3 16 13 16 10 0 15 -7 13
-17z m-3343 -70 l40 -6 -30 -13 c-33 -13 -74 -9 -117 13 -54 27 -33 28 107 6z
m2697 -98 c-3 -22 -6 -41 -7 -43 -5 -6 -102 41 -122 60 -35 32 -28 39 32 37
42 -2 60 2 73 15 16 16 17 15 23 -6 3 -13 4 -41 1 -63z m-3215 13 c-3 -8 -6
-5 -6 6 -1 11 2 17 5 13 3 -3 4 -12 1 -19z m88 -143 c23 0 65 -62 65 -98 0
-35 -16 -67 -34 -67 -7 0 -23 12 -37 26 -19 20 -24 37 -25 83 -1 35 -9 72 -21
96 -11 22 -24 51 -27 65 -4 14 8 -4 27 -40 22 -43 40 -65 52 -65z m171 -87
c23 -29 45 -64 48 -78 7 -24 6 -24 -9 3 -20 34 -28 35 -15 1 17 -45 10 -41
-18 11 -15 28 -51 85 -80 129 -63 95 -68 119 -9 43 23 -31 61 -80 83 -109z
m-126 97 c13 -14 21 -25 18 -25 -2 0 -15 11 -28 25 -13 14 -21 25 -18 25 2 0
15 -11 28 -25z m4001 2 c-1 -12 -15 -9 -19 4 -3 6 1 10 8 8 6 -3 11 -8 11 -12z
m-3924 -114 c16 -82 -2 -151 -35 -138 -10 3 -12 0 -8 -10 8 -22 -9 -19 -60 11
-39 23 -64 50 -64 69 0 16 77 -10 98 -34 23 -26 23 -26 16 -2 -8 30 15 111 32
111 8 0 11 6 7 18 -3 9 -3 14 1 10 4 -3 10 -19 13 -35z m-196 -40 c13 -16 12
-17 -3 -4 -10 7 -18 15 -18 17 0 8 8 3 21 -13z m259 -69 c24 -54 26 -103 5
-130 -14 -19 -15 -18 -40 8 -14 15 -25 39 -25 52 0 36 22 116 32 116 5 0 18
-21 28 -46z m-240 -19 c0 -5 -5 -3 -10 5 -5 8 -10 20 -10 25 0 6 5 3 10 -5 5
-8 10 -19 10 -25z m133 -80 c28 -18 62 -64 53 -72 -11 -12 -136 76 -136 95 0
13 48 0 83 -23z m-305 -199 c30 -28 60 -64 68 -81 14 -29 14 -29 -2 -7 -9 12
-22 22 -28 22 -11 0 -112 100 -166 164 -22 26 -19 25 25 -9 28 -21 74 -62 103
-89z m-139 47 c2 -2 0 -3 -5 -3 -5 0 -25 14 -44 31 l-35 30 40 -27 c22 -16 42
-29 44 -31z m716 5 c31 -66 33 -136 5 -169 -15 -19 -19 -21 -20 -8 0 10 -16
31 -37 49 l-36 32 23 52 c12 28 24 61 27 74 3 12 7 22 10 22 2 0 15 -24 28
-52z m-220 28 c28 -12 65 -58 65 -81 0 -14 -29 -2 -77 31 -76 52 -69 83 12 50z
m-699 -56 l38 -45 -38 35 c-21 19 -42 44 -48 55 -12 23 -5 17 48 -45z m180 -2
c4 -7 -9 1 -29 16 -20 16 -37 30 -37 33 0 7 58 -36 66 -49z m105 -80 c10 -21
19 -56 19 -79 l0 -41 -37 28 c-21 15 -39 28 -41 29 -7 5 -22 127 -16 136 9 14
52 -27 75 -73z m727 0 c6 -18 20 -59 32 -91 17 -48 19 -64 10 -97 -12 -45 -27
-59 -37 -33 -10 29 -35 53 -55 53 -25 0 -24 58 2 110 11 22 20 51 20 65 0 35
14 31 28 -7z m-629 -52 c36 -45 44 -69 39 -116 l-3 -33 -32 27 c-18 15 -36 26
-40 24 -9 -4 -22 61 -22 115 -1 46 11 42 58 -17z m408 14 c17 -10 37 -29 44
-42 11 -21 11 -22 -4 -9 -10 7 -17 11 -17 8 0 -3 -25 5 -55 19 -31 13 -63 24
-73 24 -9 0 -24 5 -32 10 -11 7 3 10 45 10 42 0 70 -6 92 -20z m3848 5 c-27
-7 -84 -20 -125 -30 -108 -25 -278 -78 -463 -145 -32 -11 -70 -23 -85 -25 -15
-3 -52 -9 -82 -14 -30 -5 -79 -18 -109 -30 -91 -34 -70 -14 35 35 136 63 294
116 459 154 193 44 511 92 370 55z m-4083 -138 c32 -46 43 -93 33 -144 l-7
-38 -12 30 c-14 33 -95 86 -97 63 0 -7 -5 1 -10 17 -5 17 -6 65 -2 108 l6 78
31 -37 c17 -20 43 -55 58 -77z m4218 89 c0 -2 -30 -14 -66 -26 -37 -13 -104
-40 -149 -60 -45 -21 -102 -44 -126 -50 -24 -7 -84 -32 -133 -56 -49 -25 -83
-38 -76 -29 20 25 266 140 370 174 135 43 180 55 180 47z m-4561 -20 c15 -8
33 -22 40 -30 12 -14 9 -16 -23 -16 -53 0 -128 21 -150 42 -19 18 -18 18 43
18 34 0 74 -6 90 -14z m2377 -13 c-8 -16 -62 -79 -120 -141 -130 -140 -160
-187 -161 -258 0 -39 6 -60 23 -83 12 -17 18 -31 13 -31 -19 0 -59 61 -66 101
l-7 41 -43 -42 c-60 -59 -82 -111 -68 -158 37 -119 37 -120 26 -144 -11 -21
-12 -20 -12 16 -1 46 -39 115 -52 94 -5 -7 -9 -20 -9 -28 0 -9 -25 -67 -56
-130 -31 -63 -60 -128 -64 -145 -7 -24 -8 -26 -9 -7 -1 12 8 48 19 79 11 32
20 61 20 65 0 13 -60 -21 -110 -61 l-45 -36 30 39 c16 21 52 51 80 67 58 33
85 73 109 164 8 33 19 71 22 84 l7 25 -34 -21 c-19 -11 -69 -39 -112 -62 -82
-45 -119 -84 -135 -141 l-10 -35 -1 35 c-1 42 28 93 77 138 33 30 34 32 12 26
-55 -14 -97 -41 -155 -99 -33 -33 -52 -48 -42 -33 9 15 17 30 17 34 0 4 -25 4
-55 2 -67 -6 -51 9 19 18 35 5 59 16 85 39 50 44 94 66 178 85 57 14 88 29
150 74 44 31 103 81 133 111 52 53 62 77 22 56 -11 -6 -53 -16 -93 -22 -105
-16 -137 -32 -200 -99 -31 -34 -64 -60 -75 -60 -17 0 -16 3 7 23 15 12 36 39
48 59 12 20 38 47 57 58 18 12 34 24 34 27 0 3 -35 3 -78 1 -60 -5 -92 -13
-139 -37 -72 -36 -98 -66 -119 -136 -8 -29 -24 -61 -36 -71 l-21 -19 15 30
c18 36 32 115 20 115 -15 0 -97 -57 -126 -89 -17 -17 -39 -31 -50 -31 -19 0
-19 1 3 16 30 22 91 88 85 93 -2 3 -23 8 -47 12 -38 6 -35 7 26 8 68 1 107 14
156 52 29 23 24 23 -102 4 -90 -13 -134 -27 -147 -45 -3 -4 -16 -11 -30 -15
-19 -5 -17 -1 13 20 54 38 91 51 177 64 41 7 113 26 160 42 74 27 105 32 237
39 113 6 168 13 218 30 82 27 200 105 255 168 29 33 40 40 35 25 -9 -31 9 -29
29 2 22 34 30 32 12 -2z m-1376 -243 c92 -308 425 -704 749 -891 65 -37 72
-39 156 -39 69 0 93 4 107 17 17 15 19 15 33 -3 14 -18 14 -18 15 8 0 52 35
112 79 137 23 12 43 21 44 20 53 -95 67 -152 46 -190 -9 -18 -7 -19 15 -13 20
5 27 2 32 -12 9 -25 66 -79 80 -76 7 1 14 -6 16 -15 7 -25 144 -101 222 -123
86 -24 328 -44 473 -38 289 12 723 191 985 406 88 71 189 169 246 236 67 78
49 45 -25 -47 -165 -204 -443 -398 -745 -520 -102 -41 -248 -143 -153 -107 15
6 30 9 32 6 6 -6 -129 -60 -223 -89 -106 -34 -296 -73 -414 -86 -161 -17 -270
-22 -270 -11 0 5 4 10 9 10 5 0 12 7 15 16 6 14 4 15 -10 3 -13 -11 -15 -11
-14 2 4 26 0 40 -9 34 -6 -3 -14 3 -20 12 -6 10 -11 14 -11 9 0 -5 -6 -4 -13
2 -7 6 -83 16 -168 22 -84 6 -183 18 -219 25 l-65 14 60 -5 c340 -27 591 -23
805 13 l105 18 -145 7 c-80 4 -215 14 -300 22 -85 8 -204 18 -265 21 -117 5
-134 11 -516 161 -48 19 -91 34 -97 34 -5 0 -15 7 -22 15 -7 8 -72 45 -146 82
-73 37 -185 104 -248 148 -146 102 -510 392 -601 479 -49 48 -26 31 81 -56 82
-68 179 -145 215 -173 35 -27 96 -74 134 -104 227 -177 507 -329 739 -400 156
-48 114 -8 -119 114 -71 37 -151 82 -176 100 -26 19 -68 40 -93 49 -60 21
-136 76 -160 118 -17 28 -17 31 -3 19 32 -26 17 5 -19 39 -150 141 -262 389
-272 602 -2 58 -1 128 4 155 l8 48 8 -80 c4 -44 17 -109 28 -145z m1140 212
c0 -11 -93 -62 -111 -62 -10 0 69 51 109 69 1 0 2 -3 2 -7z m451 -162 c76 -63
120 -86 338 -172 182 -72 261 -90 346 -78 l50 7 -100 47 c-55 27 -146 63 -202
81 -57 19 -108 37 -114 41 -25 15 19 21 106 13 219 -20 615 -153 846 -284 106
-61 170 -106 127 -90 -11 4 -25 -3 -43 -23 -47 -53 -65 -51 -183 26 -59 38
-118 75 -132 82 l-25 13 19 -22 c16 -17 16 -21 4 -16 -12 5 -17 0 -20 -14 -3
-20 -6 -19 -58 16 -30 20 -85 54 -123 75 -66 38 -71 39 -133 33 -35 -4 -64
-11 -64 -15 0 -18 127 -101 184 -120 34 -11 75 -31 91 -44 l30 -25 -52 25
c-28 14 -71 28 -95 31 -30 4 -54 15 -78 38 -61 56 -99 77 -173 95 -40 10 -74
17 -75 15 -2 -2 23 -39 55 -82 71 -96 165 -163 268 -194 76 -22 180 -67 173
-75 -3 -2 -22 3 -44 12 -36 16 -130 44 -146 44 -6 0 37 -72 77 -128 9 -12 33
-31 53 -42 25 -14 29 -19 12 -14 -51 13 -81 36 -113 87 -42 64 -61 81 -159
146 -42 28 -97 72 -122 98 l-46 48 0 -68 c0 -38 5 -78 11 -90 10 -21 10 -21
-6 -2 -21 27 -35 81 -35 139 0 45 -4 53 -43 90 -35 34 -62 48 -147 75 -58 19
-111 36 -118 38 -20 8 4 -47 36 -79 14 -16 22 -28 18 -28 -22 0 -50 27 -76 74
-22 39 -48 65 -100 100 -38 27 -70 55 -70 62 0 8 -17 33 -37 55 -40 43 -68 88
-60 95 3 3 15 -9 27 -25 32 -46 43 -37 15 12 -37 64 -30 79 10 20 19 -29 62
-75 96 -103z m-1913 106 c27 -14 81 -66 69 -66 -4 0 -15 4 -25 9 -28 13 -115
42 -147 49 l-30 6 25 7 c41 12 79 10 108 -5z m-109 -185 c14 -42 15 -111 1
-111 -5 0 -10 5 -10 10 0 14 -33 49 -67 72 -36 23 -41 23 -46 -4 -3 -22 -4
-21 -11 5 -5 15 -5 70 -1 122 l7 94 58 -77 c31 -42 62 -92 69 -111z m-449 154
c17 -9 30 -19 30 -23 0 -11 -107 -14 -127 -3 -10 5 -31 13 -48 17 l-30 7 25 7
c43 14 120 11 150 -5z m2246 -65 c1 -54 8 -82 28 -125 31 -63 66 -93 151 -131
33 -14 86 -39 117 -55 32 -17 90 -37 130 -45 40 -8 75 -17 77 -20 14 -14 -158
10 -202 28 -66 26 -180 58 -186 52 -3 -2 19 -29 49 -59 64 -65 152 -113 275
-150 50 -15 126 -46 170 -70 44 -23 105 -48 135 -55 102 -23 163 -60 192 -115
9 -16 5 -15 -18 6 -49 43 -82 59 -164 80 -44 11 -92 24 -106 29 l-25 10 21
-31 c23 -31 63 -130 56 -137 -5 -4 -28 28 -69 97 -18 30 -50 67 -72 82 -41 30
-235 102 -235 88 0 -4 4 -10 9 -14 23 -14 152 -220 161 -258 6 -23 17 -59 25
-80 11 -30 11 -36 1 -28 -7 6 -16 8 -19 5 -3 -3 -11 14 -17 37 -16 58 -43 109
-72 137 l-25 22 -36 -78 c-42 -89 -45 -125 -17 -185 12 -24 15 -34 6 -23 -9
11 -23 39 -33 64 -16 42 -16 49 -1 101 9 31 23 76 32 100 24 64 9 99 -78 180
-153 142 -191 186 -221 249 l-30 64 -7 -54 c-10 -84 -9 -184 2 -215 6 -15 47
-62 90 -103 l80 -75 -1 -55 -2 -55 -6 43 c-8 47 -46 93 -101 122 -36 19 -80
61 -98 94 -9 18 -11 17 -31 -15 -51 -83 -35 -148 66 -266 79 -93 89 -115 96
-218 6 -88 -8 -85 -19 5 -9 72 -14 81 -101 173 -129 136 -148 211 -85 340 17
34 34 76 38 92 l7 30 -24 -21 c-13 -11 -45 -33 -70 -47 -61 -35 -106 -87 -119
-139 -23 -95 -31 -116 -51 -142 -11 -14 -30 -31 -42 -38 -17 -9 -15 -3 10 25
31 36 36 49 48 152 9 71 44 124 113 173 122 85 145 138 119 267 -17 80 -15
159 4 171 5 3 9 0 9 -5 0 -20 15 -11 39 24 13 19 24 35 25 35 0 0 2 -31 2 -70z
m-1540 -27 c21 -32 53 -83 72 -113 57 -88 7 -36 -58 62 -55 81 -68 108 -55
108 2 0 21 -26 41 -57z m2844 -14 c185 -22 482 -89 607 -135 39 -14 41 -17 33
-44 -4 -16 -6 -31 -2 -34 11 -12 -19 -5 -164 40 -82 25 -170 46 -196 47 -27 1
-48 5 -48 10 0 4 -4 7 -10 7 -6 0 -9 -6 -8 -12 4 -16 4 -16 -187 26 -88 19
-218 42 -290 51 -71 9 -148 21 -170 28 -40 12 -40 12 45 18 151 10 303 9 390
-2z m-3414 -35 c18 -9 38 -22 45 -30 9 -11 7 -12 -17 -5 -16 6 -74 13 -129 17
l-100 7 45 13 c63 17 116 17 156 -2z m405 -41 c20 -21 47 -54 61 -73 32 -45
102 -170 94 -170 -3 0 -13 14 -21 30 -9 17 -20 28 -25 25 -5 -3 -34 26 -65 64
-31 38 -59 71 -63 73 -4 2 -17 27 -29 55 -18 45 -19 51 -5 44 10 -5 33 -27 53
-48z m1890 -28 c8 -16 6 -15 -10 4 -12 13 -21 28 -21 35 0 12 14 -5 31 -39z
m-2358 28 c-7 -2 -21 -2 -30 0 -10 3 -4 5 12 5 17 0 24 -2 18 -5z m192 -23
c10 -11 16 -20 13 -20 -3 0 -13 9 -23 20 -10 11 -16 20 -13 20 3 0 13 -9 23
-20z m487 -154 c29 -34 96 -108 148 -166 79 -87 86 -97 42 -60 -30 24 -86 83
-125 130 -39 47 -101 116 -137 154 -53 56 -57 63 -23 36 24 -18 66 -61 95 -94z
m-445 49 c20 -8 34 -17 32 -19 -2 -2 -60 -6 -129 -9 -69 -3 -116 -3 -105 0 11
3 45 13 75 24 67 23 81 23 127 4z m-69 -42 c-10 -2 -26 -2 -35 0 -10 3 -2 5
17 5 19 0 27 -2 18 -5z m-268 -58 c69 -14 141 -34 160 -43 32 -16 35 -20 33
-56 -2 -22 -5 -41 -8 -44 -8 -9 -134 48 -247 110 -107 59 -129 76 -85 64 12
-3 78 -17 147 -31z m560 -146 c19 -10 49 -31 65 -45 l30 -27 -30 19 c-16 10
-57 33 -90 52 -61 34 -39 35 25 1z m179 -210 c40 -9 155 -59 149 -65 -2 -1
-30 2 -63 8 -76 12 -279 -7 -314 -29 -14 -9 -20 -10 -16 -3 6 9 -2 11 -31 7
-22 -4 -72 -9 -113 -13 l-73 -6 48 -28 48 -28 38 19 c21 11 38 17 38 14 0 -2
-17 -13 -38 -24 l-39 -20 -59 31 c-73 38 -71 36 -48 44 10 3 59 22 108 41 156
60 264 76 365 52z m331 -209 c23 -7 23 -8 -9 -9 -18 -1 -84 -19 -145 -42 -81
-30 -121 -50 -148 -77 -50 -48 -57 -36 -13 21 42 55 83 85 138 103 47 14 138
16 177 4z m89 -511 c66 -26 94 -46 36 -26 -79 28 -170 70 -194 88 -13 10 -27
16 -32 13 -9 -5 -69 22 -69 32 0 3 6 2 13 -1 6 -3 1 2 -12 12 -70 51 -54 46
68 -22 74 -41 159 -84 190 -96z m664 94 c-7 -2 -19 -2 -25 0 -7 3 -2 5 12 5
14 0 19 -2 13 -5z m65 -10 c-10 -2 -26 -2 -35 0 -10 3 -2 5 17 5 19 0 27 -2
18 -5z m-723 -475 c11 -12 -344 -3 -410 10 -22 4 59 6 180 4 130 -2 224 -8
230 -14z m60 2 c3 -6 -3 -10 -14 -10 -12 0 -21 5 -21 10 0 13 27 13 35 0z"/>
<path d="M370 2196 c0 -2 19 -19 43 -37 39 -30 40 -31 17 -5 -24 26 -60 52
-60 42z"/>
<path d="M1271 1672 c10 -64 38 -122 60 -122 17 0 17 2 2 38 -20 48 -62 132
-67 132 -2 0 0 -21 5 -48z"/>
<path d="M4103 1683 c9 -2 23 -2 30 0 6 3 -1 5 -18 5 -16 0 -22 -2 -12 -5z"/>
<path d="M2728 5113 c7 -3 16 -2 19 1 4 3 -2 6 -13 5 -11 0 -14 -3 -6 -6z"/>
<path d="M1008 5093 c6 -2 18 -2 25 0 6 3 1 5 -13 5 -14 0 -19 -2 -12 -5z"/>
<path d="M2470 4405 c7 -9 15 -13 17 -11 7 7 -7 26 -19 26 -6 0 -6 -6 2 -15z"/>
<path d="M689 4033 c-61 -70 -146 -204 -200 -318 -61 -130 -66 -145 -42 -145
32 1 68 43 125 151 31 57 83 148 116 201 64 103 85 158 59 158 -9 0 -34 -21
-58 -47z"/>
<path d="M3270 2745 c-14 -8 -34 -17 -45 -20 l-20 -7 20 -8 c11 -4 37 -5 58
-2 32 4 38 8 35 25 -4 26 -16 29 -48 12z"/>
<path d="M2235 2300 c-24 -6 -20 -8 25 -8 30 0 69 4 85 8 24 6 20 8 -25 8 -30
0 -68 -4 -85 -8z"/>
<path d="M2286 2271 c5 -4 38 -18 74 -30 61 -20 66 -20 77 -4 28 37 17 43 -74
43 -50 0 -83 -4 -77 -9z"/>
<path d="M3170 2251 l-35 -7 40 -7 c57 -10 104 -9 85 2 -26 15 -54 18 -90 12z"/>
<path d="M3182 2166 c-92 -25 -104 -33 -108 -71 -2 -22 1 -25 29 -25 32 0 279
40 286 47 3 2 -2 10 -10 18 -13 14 -24 14 -95 0 -43 -8 -81 -15 -84 -15 -3 1
22 12 55 26 33 13 64 29 69 34 17 17 -54 10 -142 -14z"/>
<path d="M3830 2079 c-63 -10 -133 -21 -155 -24 -144 -20 -461 -94 -448 -105
4 -4 31 -15 60 -24 37 -12 57 -14 71 -7 60 32 373 120 535 151 185 35 138 42
-63 9z"/>
<path d="M3002 3 c59 -2 158 -2 220 0 62 1 14 3 -107 3 -121 0 -172 -2 -113
-3z"/>
</g>
</svg>
